Coordinates
version=1
nRows=19
nColumns=24
inDegrees=yes

Units are S.I. units (second, meters, Newtons, ...)
Angles are in degrees.

endheader
time	pelvis_tilt	pelvis_list	pelvis_rotation	pelvis_tx	pelvis_ty	pelvis_tz	hip_flexion_r	hip_adduction_r	hip_rotation_r	knee_angle_r	ankle_angle_r	subtalar_angle_r	mtp_angle_r	hip_flexion_l	hip_adduction_l	hip_rotation_l	knee_angle_l	ankle_angle_l	subtalar_angle_l	mtp_angle_l	lumbar_extension	lumbar_bending	lumbar_rotation
      1.51500000	     20.57843909	    -10.41767519	      0.23561448	     -0.00417005	      0.90452715	     -0.00318351	     -0.50751373	     11.48107850	      2.63888463	    -31.74585276	     13.74551003	    -16.49985502	     17.09399975	    -34.00419057	     -6.19545775	     16.59815639	      3.62343324	      2.55152966	    -36.64843871	     19.13617177	    -26.24140973	     10.45118550	      9.22842902
      1.52000000	     20.58634162	    -10.34652921	      0.56470233	      0.00076493	      0.90373287	     -0.00357694	     -0.31766359	     11.47194411	      2.78171137	    -29.85780810	     13.32764877	    -17.10055034	     17.19408421	    -34.21959377	     -6.25291702	     17.16315996	      3.43879940	      2.75290151	    -37.07121318	     19.02268346	    -26.29986769	     10.52699738	      8.94333946
      1.52500000	     20.57506320	    -10.28044779	      0.81378520	      0.00568088	      0.90288523	     -0.00379103	     -0.16751371	     11.49316871	      3.17503850	    -27.87273886	     12.77919851	    -17.99474013	     17.56986618	    -34.44875284	     -6.28187568	     17.66564084	      3.30472041	      2.84199504	    -37.71780339	     18.80685046	    -26.35203620	     10.57093116	      8.71686286
      1.53000000	     20.54426981	    -10.17756943	      1.13078167	      0.01066072	      0.90199765	     -0.00416323	     -0.03440774	     11.43443418	      3.43156961	    -25.82294914	     12.18716506	    -18.75332853	     18.23328298	    -34.60955490	     -6.30133974	     18.21202578	      3.08941757	      2.99710848	    -38.24490382	     18.61006707	    -26.36216354	     10.61700648	      8.38630079
      1.53500000	     20.59165271	    -10.05203975	      1.46097752	      0.01564383	      0.90115855	     -0.00453722	     -0.04468656	     11.33927375	      3.73723666	    -23.68836256	     11.64956770	    -19.35767110	     18.70917623	    -34.87510822	     -6.31417863	     18.77571424	      2.91751405	      3.22141594	    -38.55652142	     18.51552124	    -26.45347434	     10.63874828	      8.07249587
      1.54000000	     20.49562149	     -9.89227950	      1.75302243	      0.02065943	      0.90013234	     -0.00484873	      0.06062046	     11.20760161	      4.16329325	    -21.49378889	     10.83243399	    -20.42136895	     19.82729873	    -34.95001373	     -6.27337215	     19.35266401	      2.66095257	      3.43909852	    -39.00061979	     18.36107612	    -26.38828005	     10.62072669	      7.73132564
      1.54500000	     20.57265528	     -9.75119063	      2.08104566	      0.02575255	      0.89927214	     -0.00523286	     -0.11497064	     11.06782977	      4.58384350	    -19.15430734	     10.13984320	    -21.14344429	     20.53581906	    -35.23013080	     -6.25300900	     19.78268322	      2.42170780	      3.67247898	    -39.29169038	     18.29840146	    -26.50102459	     10.63275564	      7.40606035
      1.55000000	     20.56111219	     -9.56264156	      2.39036708	      0.03089888	      0.89827650	     -0.00558638	     -0.24065638	     10.86606180	      5.10098463	    -16.76319226	      9.27026364	    -22.08538952	     21.32723306	    -35.40926632	     -6.18686985	     20.28892981	      2.16630146	      3.91603561	    -39.59336621	     18.25011078	    -26.50955101	     10.59445923	      7.05710052
      1.55500000	     20.47494202	     -9.31564146	      2.67466653	      0.03607681	      0.89714228	     -0.00588641	     -0.32828209	     10.58703700	      5.73500088	    -14.33421248	      8.20164366	    -23.34082092	     22.69832259	    -35.51001386	     -6.06431870	     20.87646769	      1.91103107	      4.16585991	    -39.86364191	     18.22090597	    -26.43612483	     10.48660302	      6.68381962
      1.56000000	     20.47651680	     -9.09301211	      2.97649399	      0.04141401	      0.89605665	     -0.00626570	     -0.58798981	     10.29388519	      6.31520909	    -11.80061987	      6.95543697	    -24.52770214	     26.36101199	    -35.72203523	     -5.95723324	     21.31016764	      1.65314751	      4.44982224	    -40.08056399	     18.24302074	    -26.43937774	     10.41960829	      6.32967592
      1.56500000	     20.44035907	     -8.79024694	      3.22153621	      0.04677783	      0.89490026	     -0.00654561	     -0.82660165	      9.89837435	      7.00197133	     -9.34670121	      5.93835024	    -25.38201796	     26.37762972	    -35.88888679	     -5.74381709	     21.74923661	      1.36289772	      4.65713736	    -40.29873377	     18.24832844	    -26.40672648	     10.24349778	      5.97328584
      1.57000000	     20.37483487	     -8.46916086	      3.45445317	      0.05224186	      0.89363031	     -0.00682122	     -1.04394382	      9.45714013	      7.67346127	     -6.96082464	      4.86947808	    -26.21404698	     26.66667066	    -36.04470953	     -5.51314555	     22.20894566	      1.09401287	      4.90127188	    -40.48304632	     18.27591426	    -26.33244494	     10.04811692	      5.62672939
      1.57500000	     20.23197774	     -8.07628115	      3.63073826	      0.05773519	      0.89223151	     -0.00700523	     -1.16432681	      8.91945359	      8.41495209	     -4.70209616	      3.79247808	    -27.22869346	     27.39847399	    -36.09479301	     -5.17466354	     22.65518290	      0.74750411	      5.17654937	    -40.68109299	     18.32717137	    -26.18248722	      9.75393531	      5.25774464
      1.58000000	     20.10653418	     -7.69262149	      3.79612067	      0.06334943	      0.89081765	     -0.00718809	     -1.28899978	      8.37141149	      9.03449239	     -2.57989106	      2.73872440	    -27.91779359	     28.40738432	    -36.18961429	     -4.84079999	     23.04542049	      0.42543616	      5.44169965	    -40.81699796	     18.41107540	    -26.04042552	      9.46788211	      4.91996138
      1.58500000	     19.98003915	     -7.30460193	      3.96223943	      0.06904042	      0.88940234	     -0.00740209	     -1.31461621	      7.81202549	      9.31431308	     -0.80193978	      2.26597300	    -27.49022678	     28.51916133	    -36.27385146	     -4.49289674	     23.40961522	      0.05433911	      5.71498571	    -40.91706026	     18.44992846	    -25.89154976	      9.18274495	      4.59909404
      1.59000000	     19.85528930	     -6.92259301	      4.14547281	      0.07484403	      0.88797315	     -0.00756523	     -1.36795944	      7.26720728	      9.62049829	      0.92484918	      1.64059420	    -27.39308376	     28.68762190	    -36.38136895	     -4.17451919	     23.75950869	     -0.28544295	      6.00673459	    -40.96903485	     18.51065195	    -25.73164215	      8.89982412	      4.21436168
      1.59500000	     19.68735272	     -6.54722624	      4.24308779	      0.08069158	      0.88649994	     -0.00759379	     -1.32923225	      6.73328868	      9.98385472	      2.44051217	      1.04258363	    -27.26482196	     28.89173483	    -36.44995482	     -3.81105252	     24.01225604	     -0.65044657	      6.29228746	    -40.96369137	     18.58829167	    -25.53425905	      8.58990870	      3.93593378
      1.60000000	     19.53357806	     -6.21092666	      4.26759278	      0.08659537	      0.88505880	     -0.00748640	     -1.24522820	      6.25634408	     10.30989865	      3.70775823	      0.57427175	    -26.79002460	     28.96284962	    -36.57063352	     -3.45099713	     24.12722055	     -0.96347711	      6.48801525	    -41.00164130	     18.62719583	    -25.35904248	      8.29131233	      3.75135721
      1.60500000	     19.39323554	     -5.88135588	      4.39946922	      0.09260991	      0.88365651	     -0.00752074	     -1.18902259	      5.80255915	     10.46737856	      4.87491495	      0.14579504	    -26.45744343	     29.11867642	    -36.66666743	     -3.15222457	     24.33693841	     -1.36739824	      6.80994310	    -40.86923363	     18.73440661	    -25.17264910	      8.04151373	      3.46627024
